<svg id="visual" viewBox="0 0 900 600" width="900" height="600" xmlns="http://www.w3.org/2000/svg" xmlns:xlink="http://www.w3.org/1999/xlink" version="1.1"><rect x="0" y="0" width="900" height="600" fill="#e9e7e4"></rect><path d="M0 350L10.7 354.3C21.3 358.7 42.7 367.3 64.2 371.2C85.7 375 107.3 374 128.8 370C150.3 366 171.7 359 193 358.3C214.3 357.7 235.7 363.3 257 371.5C278.3 379.7 299.7 390.3 321.2 393.2C342.7 396 364.3 391 385.8 390.3C407.3 389.7 428.7 393.3 450 389.7C471.3 386 492.7 375 514.2 373.2C535.7 371.3 557.3 378.7 578.8 378.2C600.3 377.7 621.7 369.3 643 362.8C664.3 356.3 685.7 351.7 707 353.7C728.3 355.7 749.7 364.3 771.2 371.3C792.7 378.3 814.3 383.7 835.8 382.8C857.3 382 878.7 375 889.3 371.5L900 368L900 601L889.3 601C878.7 601 857.3 601 835.8 601C814.3 601 792.7 601 771.2 601C749.7 601 728.3 601 707 601C685.7 601 664.3 601 643 601C621.7 601 600.3 601 578.8 601C557.3 601 535.7 601 514.2 601C492.7 601 471.3 601 450 601C428.7 601 407.3 601 385.8 601C364.3 601 342.7 601 321.2 601C299.7 601 278.3 601 257 601C235.7 601 214.3 601 193 601C171.7 601 150.3 601 128.8 601C107.3 601 85.7 601 64.2 601C42.7 601 21.3 601 10.7 601L0 601Z" fill="#d06f3b"></path><path d="M0 389L10.7 387.2C21.3 385.3 42.7 381.7 64.2 378.5C85.7 375.3 107.3 372.7 128.8 372.8C150.3 373 171.7 376 193 379.3C214.3 382.7 235.7 386.3 257 387.8C278.3 389.3 299.7 388.7 321.2 392.8C342.7 397 364.3 406 385.8 404.7C407.3 403.3 428.7 391.7 450 387.3C471.3 383 492.7 386 514.2 389.8C535.7 393.7 557.3 398.3 578.8 399C600.3 399.7 621.7 396.3 643 398.2C664.3 400 685.7 407 707 407.5C728.3 408 749.7 402 771.2 400C792.7 398 814.3 400 835.8 402.5C857.3 405 878.7 408 889.3 409.5L900 411L900 601L889.3 601C878.7 601 857.3 601 835.8 601C814.3 601 792.7 601 771.2 601C749.7 601 728.3 601 707 601C685.7 601 664.3 601 643 601C621.7 601 600.3 601 578.8 601C557.3 601 535.7 601 514.2 601C492.7 601 471.3 601 450 601C428.7 601 407.3 601 385.8 601C364.3 601 342.7 601 321.2 601C299.7 601 278.3 601 257 601C235.7 601 214.3 601 193 601C171.7 601 150.3 601 128.8 601C107.3 601 85.7 601 64.2 601C42.7 601 21.3 601 10.7 601L0 601Z" fill="#c56637"></path><path d="M0 403L10.7 403.8C21.3 404.7 42.7 406.3 64.2 408.5C85.7 410.7 107.3 413.3 128.8 415.2C150.3 417 171.7 418 193 415.7C214.3 413.3 235.7 407.7 257 404.7C278.3 401.7 299.7 401.3 321.2 406.7C342.7 412 364.3 423 385.8 423.7C407.3 424.3 428.7 414.7 450 406.5C471.3 398.3 492.7 391.7 514.2 391.2C535.7 390.7 557.3 396.3 578.8 400.7C600.3 405 621.7 408 643 408.3C664.3 408.7 685.7 406.3 707 401.8C728.3 397.3 749.7 390.7 771.2 394.8C792.7 399 814.3 414 835.8 419.2C857.3 424.3 878.7 419.7 889.3 417.3L900 415L900 601L889.3 601C878.7 601 857.3 601 835.8 601C814.3 601 792.7 601 771.2 601C749.7 601 728.3 601 707 601C685.7 601 664.3 601 643 601C621.7 601 600.3 601 578.8 601C557.3 601 535.7 601 514.2 601C492.7 601 471.3 601 450 601C428.7 601 407.3 601 385.8 601C364.3 601 342.7 601 321.2 601C299.7 601 278.3 601 257 601C235.7 601 214.3 601 193 601C171.7 601 150.3 601 128.8 601C107.3 601 85.7 601 64.2 601C42.7 601 21.3 601 10.7 601L0 601Z" fill="#b95d33"></path><path d="M0 439L10.7 437.3C21.3 435.7 42.7 432.3 64.2 432C85.7 431.7 107.3 434.3 128.8 435.5C150.3 436.7 171.7 436.3 193 431.7C214.3 427 235.7 418 257 414.7C278.3 411.3 299.7 413.7 321.2 420.5C342.7 427.3 364.3 438.7 385.8 440.2C407.3 441.7 428.7 433.3 450 429.7C471.3 426 492.7 427 514.2 428.3C535.7 429.7 557.3 431.3 578.8 434.3C600.3 437.3 621.7 441.7 643 443.7C664.3 445.7 685.7 445.3 707 445.5C728.3 445.7 749.7 446.3 771.2 444.7C792.7 443 814.3 439 835.8 437.8C857.3 436.7 878.7 438.3 889.3 439.2L900 440L900 601L889.3 601C878.7 601 857.3 601 835.8 601C814.3 601 792.7 601 771.2 601C749.7 601 728.3 601 707 601C685.7 601 664.3 601 643 601C621.7 601 600.3 601 578.8 601C557.3 601 535.7 601 514.2 601C492.7 601 471.3 601 450 601C428.7 601 407.3 601 385.8 601C364.3 601 342.7 601 321.2 601C299.7 601 278.3 601 257 601C235.7 601 214.3 601 193 601C171.7 601 150.3 601 128.8 601C107.3 601 85.7 601 64.2 601C42.7 601 21.3 601 10.7 601L0 601Z" fill="#ae542f"></path><path d="M0 435L10.7 435C21.3 435 42.7 435 64.2 436.8C85.7 438.7 107.3 442.3 128.8 446.8C150.3 451.3 171.7 456.7 193 457.5C214.3 458.3 235.7 454.7 257 450.2C278.3 445.7 299.7 440.3 321.2 440.5C342.7 440.7 364.3 446.3 385.8 450C407.3 453.7 428.7 455.3 450 454.2C471.3 453 492.7 449 514.2 443.8C535.7 438.7 557.3 432.3 578.8 429.5C600.3 426.7 621.7 427.3 643 431.5C664.3 435.7 685.7 443.3 707 444.5C728.3 445.7 749.7 440.3 771.2 440.7C792.7 441 814.3 447 835.8 446.8C857.3 446.7 878.7 440.3 889.3 437.2L900 434L900 601L889.3 601C878.7 601 857.3 601 835.8 601C814.3 601 792.7 601 771.2 601C749.7 601 728.3 601 707 601C685.7 601 664.3 601 643 601C621.7 601 600.3 601 578.8 601C557.3 601 535.7 601 514.2 601C492.7 601 471.3 601 450 601C428.7 601 407.3 601 385.8 601C364.3 601 342.7 601 321.2 601C299.7 601 278.3 601 257 601C235.7 601 214.3 601 193 601C171.7 601 150.3 601 128.8 601C107.3 601 85.7 601 64.2 601C42.7 601 21.3 601 10.7 601L0 601Z" fill="#a24b2b"></path><path d="M0 480L10.7 477.3C21.3 474.7 42.7 469.3 64.2 467.5C85.7 465.7 107.3 467.3 128.8 464.7C150.3 462 171.7 455 193 452.2C214.3 449.3 235.7 450.7 257 456.7C278.3 462.7 299.7 473.3 321.2 474.8C342.7 476.3 364.3 468.7 385.8 463.2C407.3 457.7 428.7 454.3 450 457.8C471.3 461.3 492.7 471.7 514.2 476C535.7 480.3 557.3 478.7 578.8 478C600.3 477.3 621.7 477.7 643 476.2C664.3 474.7 685.7 471.3 707 466.7C728.3 462 749.7 456 771.2 453.2C792.7 450.3 814.3 450.7 835.8 455.5C857.3 460.3 878.7 469.7 889.3 474.3L900 479L900 601L889.3 601C878.7 601 857.3 601 835.8 601C814.3 601 792.7 601 771.2 601C749.7 601 728.3 601 707 601C685.7 601 664.3 601 643 601C621.7 601 600.3 601 578.8 601C557.3 601 535.7 601 514.2 601C492.7 601 471.3 601 450 601C428.7 601 407.3 601 385.8 601C364.3 601 342.7 601 321.2 601C299.7 601 278.3 601 257 601C235.7 601 214.3 601 193 601C171.7 601 150.3 601 128.8 601C107.3 601 85.7 601 64.2 601C42.7 601 21.3 601 10.7 601L0 601Z" fill="#974227"></path><path d="M0 488L10.7 487.5C21.3 487 42.7 486 64.2 484C85.7 482 107.3 479 128.8 480.5C150.3 482 171.7 488 193 490.5C214.3 493 235.7 492 257 490.3C278.3 488.7 299.7 486.3 321.2 485.2C342.7 484 364.3 484 385.8 483.3C407.3 482.7 428.7 481.3 450 478.8C471.3 476.3 492.7 472.7 514.2 471.7C535.7 470.7 557.3 472.3 578.8 475C600.3 477.7 621.7 481.3 643 484.7C664.3 488 685.7 491 707 488.8C728.3 486.7 749.7 479.3 771.2 474.7C792.7 470 814.3 468 835.8 470.8C857.3 473.7 878.7 481.3 889.3 485.2L900 489L900 601L889.3 601C878.7 601 857.3 601 835.8 601C814.3 601 792.7 601 771.2 601C749.7 601 728.3 601 707 601C685.7 601 664.3 601 643 601C621.7 601 600.3 601 578.8 601C557.3 601 535.7 601 514.2 601C492.7 601 471.3 601 450 601C428.7 601 407.3 601 385.8 601C364.3 601 342.7 601 321.2 601C299.7 601 278.3 601 257 601C235.7 601 214.3 601 193 601C171.7 601 150.3 601 128.8 601C107.3 601 85.7 601 64.2 601C42.7 601 21.3 601 10.7 601L0 601Z" fill="#8b3a23"></path><path d="M0 513L10.7 511C21.3 509 42.7 505 64.2 502C85.7 499 107.3 497 128.8 495.3C150.3 493.7 171.7 492.3 193 493.5C214.3 494.7 235.7 498.3 257 502.2C278.3 506 299.7 510 321.2 509.5C342.7 509 364.3 504 385.8 504.3C407.3 504.7 428.7 510.3 450 509.7C471.3 509 492.7 502 514.2 501.7C535.7 501.3 557.3 507.7 578.8 509.7C600.3 511.7 621.7 509.3 643 508.8C664.3 508.3 685.7 509.7 707 509.7C728.3 509.7 749.7 508.3 771.2 505.3C792.7 502.3 814.3 497.7 835.8 497.3C857.3 497 878.7 501 889.3 503L900 505L900 601L889.3 601C878.7 601 857.3 601 835.8 601C814.3 601 792.7 601 771.2 601C749.7 601 728.3 601 707 601C685.7 601 664.3 601 643 601C621.7 601 600.3 601 578.8 601C557.3 601 535.7 601 514.2 601C492.7 601 471.3 601 450 601C428.7 601 407.3 601 385.8 601C364.3 601 342.7 601 321.2 601C299.7 601 278.3 601 257 601C235.7 601 214.3 601 193 601C171.7 601 150.3 601 128.8 601C107.3 601 85.7 601 64.2 601C42.7 601 21.3 601 10.7 601L0 601Z" fill="#80321f"></path><path d="M0 511L10.7 510.5C21.3 510 42.7 509 64.2 512C85.7 515 107.3 522 128.8 523.2C150.3 524.3 171.7 519.7 193 520.5C214.3 521.3 235.7 527.7 257 527.2C278.3 526.7 299.7 519.3 321.2 515.8C342.7 512.3 364.3 512.7 385.8 513.5C407.3 514.3 428.7 515.7 450 514.8C471.3 514 492.7 511 514.2 512.3C535.7 513.7 557.3 519.3 578.8 522C600.3 524.7 621.7 524.3 643 525.3C664.3 526.3 685.7 528.7 707 527.7C728.3 526.7 749.7 522.3 771.2 519.8C792.7 517.3 814.3 516.7 835.8 516.7C857.3 516.7 878.7 517.3 889.3 517.7L900 518L900 601L889.3 601C878.7 601 857.3 601 835.8 601C814.3 601 792.7 601 771.2 601C749.7 601 728.3 601 707 601C685.7 601 664.3 601 643 601C621.7 601 600.3 601 578.8 601C557.3 601 535.7 601 514.2 601C492.7 601 471.3 601 450 601C428.7 601 407.3 601 385.8 601C364.3 601 342.7 601 321.2 601C299.7 601 278.3 601 257 601C235.7 601 214.3 601 193 601C171.7 601 150.3 601 128.8 601C107.3 601 85.7 601 64.2 601C42.7 601 21.3 601 10.7 601L0 601Z" fill="#752a1b"></path><path d="M0 544L10.7 545.3C21.3 546.7 42.7 549.3 64.2 550.7C85.7 552 107.3 552 128.8 548.3C150.3 544.7 171.7 537.3 193 536.3C214.3 535.3 235.7 540.7 257 543.2C278.3 545.7 299.7 545.3 321.2 543.7C342.7 542 364.3 539 385.8 537.7C407.3 536.3 428.7 536.7 450 538.3C471.3 540 492.7 543 514.2 542.7C535.7 542.3 557.3 538.7 578.8 536.8C600.3 535 621.7 535 643 537.7C664.3 540.3 685.7 545.7 707 546C728.3 546.3 749.7 541.7 771.2 541.8C792.7 542 814.3 547 835.8 545.3C857.3 543.7 878.7 535.3 889.3 531.2L900 527L900 601L889.3 601C878.7 601 857.3 601 835.8 601C814.3 601 792.7 601 771.2 601C749.7 601 728.3 601 707 601C685.7 601 664.3 601 643 601C621.7 601 600.3 601 578.8 601C557.3 601 535.7 601 514.2 601C492.7 601 471.3 601 450 601C428.7 601 407.3 601 385.8 601C364.3 601 342.7 601 321.2 601C299.7 601 278.3 601 257 601C235.7 601 214.3 601 193 601C171.7 601 150.3 601 128.8 601C107.3 601 85.7 601 64.2 601C42.7 601 21.3 601 10.7 601L0 601Z" fill="#6a2217"></path><path d="M0 565L10.7 565.3C21.3 565.7 42.7 566.3 64.2 565.3C85.7 564.3 107.3 561.7 128.8 559.8C150.3 558 171.7 557 193 556.7C214.3 556.3 235.7 556.7 257 556C278.3 555.3 299.7 553.7 321.2 552C342.7 550.3 364.3 548.7 385.8 551.3C407.3 554 428.7 561 450 562C471.3 563 492.7 558 514.2 556.2C535.7 554.3 557.3 555.7 578.8 556.3C600.3 557 621.7 557 643 558.7C664.3 560.3 685.7 563.7 707 565C728.3 566.3 749.7 565.7 771.2 565.7C792.7 565.7 814.3 566.3 835.8 564.2C857.3 562 878.7 557 889.3 554.5L900 552L900 601L889.3 601C878.7 601 857.3 601 835.8 601C814.3 601 792.7 601 771.2 601C749.7 601 728.3 601 707 601C685.7 601 664.3 601 643 601C621.7 601 600.3 601 578.8 601C557.3 601 535.7 601 514.2 601C492.7 601 471.3 601 450 601C428.7 601 407.3 601 385.8 601C364.3 601 342.7 601 321.2 601C299.7 601 278.3 601 257 601C235.7 601 214.3 601 193 601C171.7 601 150.3 601 128.8 601C107.3 601 85.7 601 64.2 601C42.7 601 21.3 601 10.7 601L0 601Z" fill="#5f1b13"></path><path d="M0 584L10.7 583C21.3 582 42.7 580 64.2 577.8C85.7 575.7 107.3 573.3 128.8 574C150.3 574.7 171.7 578.3 193 579.2C214.3 580 235.7 578 257 575.7C278.3 573.3 299.7 570.7 321.2 572.2C342.7 573.7 364.3 579.3 385.8 579.5C407.3 579.7 428.7 574.3 450 572C471.3 569.7 492.7 570.3 514.2 570.3C535.7 570.3 557.3 569.7 578.8 570.8C600.3 572 621.7 575 643 576.2C664.3 577.3 685.7 576.7 707 575C728.3 573.3 749.7 570.7 771.2 571C792.7 571.3 814.3 574.7 835.8 577C857.3 579.3 878.7 580.7 889.3 581.3L900 582L900 601L889.3 601C878.7 601 857.3 601 835.8 601C814.3 601 792.7 601 771.2 601C749.7 601 728.3 601 707 601C685.7 601 664.3 601 643 601C621.7 601 600.3 601 578.8 601C557.3 601 535.7 601 514.2 601C492.7 601 471.3 601 450 601C428.7 601 407.3 601 385.8 601C364.3 601 342.7 601 321.2 601C299.7 601 278.3 601 257 601C235.7 601 214.3 601 193 601C171.7 601 150.3 601 128.8 601C107.3 601 85.7 601 64.2 601C42.7 601 21.3 601 10.7 601L0 601Z" fill="#54130e"></path></svg>